<svg width="21" height="20" viewBox="0 0 21 20" fill="none" xmlns="http://www.w3.org/2000/svg">
<path fill-rule="evenodd" clip-rule="evenodd" d="M14.636 14.9973C13.3155 16.1215 11.6038 16.8 9.73366 16.8C5.5547 16.8 2.16699 13.4122 2.16699 9.23329C2.16699 5.05434 5.5547 1.66663 9.73366 1.66663C13.9126 1.66663 17.3003 5.05434 17.3003 9.23329C17.3003 11.0921 16.6301 12.7944 15.518 14.1116L19.15 17.7436L18.2662 18.6275L14.636 14.9973ZM16.0503 9.23329C16.0503 12.7219 13.2223 15.55 9.73366 15.55C6.24506 15.55 3.41699 12.7219 3.41699 9.23329C3.41699 5.74469 6.24506 2.91663 9.73366 2.91663C13.2223 2.91663 16.0503 5.74469 16.0503 9.23329Z" fill="black" fill-opacity="0.7"/>
</svg>
