<svg width="71" height="71" viewBox="0 0 71 71" fill="none" xmlns="http://www.w3.org/2000/svg">
<path fill-rule="evenodd" clip-rule="evenodd" d="M25.89 52.2099C25.2245 51.5441 24.8506 50.6414 24.8506 49.7C24.8506 48.7587 25.2245 47.8559 25.89 47.1902L37.5801 35.5L25.89 23.8099C25.2433 23.1403 24.8855 22.2436 24.8936 21.3128C24.9017 20.382 25.275 19.4916 25.9332 18.8334C26.5914 18.1752 27.4818 17.8019 28.4126 17.7938C29.3434 17.7857 30.2401 18.1435 30.9097 18.7902L45.1097 32.9902C45.7752 33.6559 46.1491 34.5587 46.1491 35.5C46.1491 36.4414 45.7752 37.3441 45.1097 38.0099L30.9097 52.2099C30.244 52.8754 29.3412 53.2493 28.3998 53.2493C27.4585 53.2493 26.5557 52.8754 25.89 52.2099Z" fill="#374151"/>
</svg>
