<svg width="20" height="21" viewBox="0 0 20 21" fill="none" xmlns="http://www.w3.org/2000/svg">
<path fill-rule="evenodd" clip-rule="evenodd" d="M12.707 5.37708C12.8945 5.5646 12.9998 5.81891 12.9998 6.08408C12.9998 6.34924 12.8945 6.60355 12.707 6.79108L9.41403 10.0841L12.707 13.3771C12.8892 13.5657 12.99 13.8183 12.9877 14.0805C12.9854 14.3427 12.8803 14.5935 12.6948 14.7789C12.5094 14.9643 12.2586 15.0695 11.9964 15.0717C11.7342 15.074 11.4816 14.9732 11.293 14.7911L7.29303 10.7911C7.10556 10.6035 7.00024 10.3492 7.00024 10.0841C7.00024 9.81891 7.10556 9.5646 7.29303 9.37708L11.293 5.37708C11.4806 5.18961 11.7349 5.08429 12 5.08429C12.2652 5.08429 12.5195 5.18961 12.707 5.37708Z" fill="#18181B"/>
</svg>
