<svg width="20" height="21" viewBox="0 0 20 21" fill="none" xmlns="http://www.w3.org/2000/svg">
<path fill-rule="evenodd" clip-rule="evenodd" d="M8 4.08408C6.93913 4.08408 5.92172 4.50551 5.17157 5.25565C4.42143 6.0058 4 7.02321 4 8.08408C4 9.14495 4.42143 10.1624 5.17157 10.9125C5.92172 11.6627 6.93913 12.0841 8 12.0841C9.06087 12.0841 10.0783 11.6627 10.8284 10.9125C11.5786 10.1624 12 9.14495 12 8.08408C12 7.02321 11.5786 6.0058 10.8284 5.25565C10.0783 4.50551 9.06087 4.08408 8 4.08408ZM2 8.08408C1.99988 7.13978 2.22264 6.20879 2.65017 5.36682C3.0777 4.52485 3.69792 3.79568 4.4604 3.2386C5.22287 2.68153 6.10606 2.31229 7.03815 2.16091C7.97023 2.00953 8.92488 2.08029 9.82446 2.36743C10.724 2.65457 11.5432 3.14998 12.2152 3.81338C12.8872 4.47677 13.3931 5.28941 13.6919 6.18521C13.9906 7.08101 14.0737 8.03467 13.9343 8.96863C13.795 9.90259 13.4372 10.7905 12.89 11.5601L17.707 16.3771C17.8892 16.5657 17.99 16.8183 17.9877 17.0805C17.9854 17.3427 17.8802 17.5935 17.6948 17.7789C17.5094 17.9643 17.2586 18.0695 16.9964 18.0718C16.7342 18.074 16.4816 17.9732 16.293 17.7911L11.477 12.9751C10.5794 13.6134 9.52335 13.9922 8.42468 14.0702C7.326 14.1482 6.22707 13.9222 5.2483 13.4171C4.26953 12.9119 3.44869 12.1471 2.87572 11.2064C2.30276 10.2658 1.99979 9.18551 2 8.08408Z" fill="#18181B"/>
</svg>
