<svg width="8" height="9" viewBox="0 0 8 9" fill="none" xmlns="http://www.w3.org/2000/svg">
<path d="M0.800049 2.48407C0.800049 2.2719 0.884334 2.06842 1.03436 1.91839C1.18439 1.76836 1.38788 1.68407 1.60005 1.68407H4.00005C4.21222 1.68407 4.4157 1.76836 4.56573 1.91839C4.71576 2.06842 4.80005 2.2719 4.80005 2.48407V5.68407C4.80005 5.89625 4.71576 6.09973 4.56573 6.24976C4.4157 6.39979 4.21222 6.48407 4.00005 6.48407H1.60005C1.38788 6.48407 1.18439 6.39979 1.03436 6.24976C0.884334 6.09973 0.800049 5.89625 0.800049 5.68407V2.48407ZM5.82125 2.92647C5.75482 2.95967 5.69894 3.01071 5.65987 3.07386C5.6208 3.13702 5.60009 3.20981 5.60005 3.28407V4.88407C5.60009 4.95834 5.6208 5.03113 5.65987 5.09428C5.69894 5.15744 5.75482 5.20848 5.82125 5.24167L6.62125 5.64167C6.68222 5.67214 6.74996 5.68652 6.81805 5.68346C6.88613 5.68039 6.95231 5.65998 7.01029 5.62415C7.06827 5.58833 7.11614 5.53828 7.14935 5.47877C7.18256 5.41925 7.20001 5.35223 7.20005 5.28407V2.88407C7.20001 2.81592 7.18256 2.7489 7.14935 2.68938C7.11614 2.62987 7.06827 2.57982 7.01029 2.544C6.95231 2.50817 6.88613 2.48776 6.81805 2.48469C6.74996 2.48163 6.68222 2.49601 6.62125 2.52647L5.82125 2.92647Z" fill="#E0F2FE"/>
</svg>
