<svg width="8" height="9" viewBox="0 0 8 9" fill="none" xmlns="http://www.w3.org/2000/svg">
<path d="M0.800049 2.48408C0.800049 2.27191 0.884334 2.06843 1.03436 1.9184C1.18439 1.76837 1.38788 1.68408 1.60005 1.68408H4.00005C4.21222 1.68408 4.4157 1.76837 4.56573 1.9184C4.71576 2.06843 4.80005 2.27191 4.80005 2.48408V5.68408C4.80005 5.89626 4.71576 6.09974 4.56573 6.24977C4.4157 6.3998 4.21222 6.48408 4.00005 6.48408H1.60005C1.38788 6.48408 1.18439 6.3998 1.03436 6.24977C0.884334 6.09974 0.800049 5.89626 0.800049 5.68408V2.48408ZM5.82125 2.92648C5.75482 2.95968 5.69894 3.01071 5.65987 3.07387C5.6208 3.13703 5.60009 3.20982 5.60005 3.28408V4.88408C5.60009 4.95835 5.6208 5.03113 5.65987 5.09429C5.69894 5.15745 5.75482 5.20849 5.82125 5.24168L6.62125 5.64168C6.68222 5.67215 6.74996 5.68653 6.81805 5.68346C6.88613 5.6804 6.95231 5.65998 7.01029 5.62416C7.06827 5.58834 7.11614 5.53829 7.14935 5.47877C7.18256 5.41926 7.20001 5.35224 7.20005 5.28408V2.88408C7.20001 2.81593 7.18256 2.74891 7.14935 2.68939C7.11614 2.62987 7.06827 2.57983 7.01029 2.544C6.95231 2.50818 6.88613 2.48777 6.81805 2.4847C6.74996 2.48163 6.68222 2.49602 6.62125 2.52648L5.82125 2.92648Z" fill="#FEF3C7"/>
</svg>
