<svg width="8" height="9" viewBox="0 0 8 9" fill="none" xmlns="http://www.w3.org/2000/svg">
<path d="M0.799805 2.48407C0.799805 2.2719 0.88409 2.06842 1.03412 1.91839C1.18415 1.76836 1.38763 1.68407 1.5998 1.68407H3.9998C4.21198 1.68407 4.41546 1.76836 4.56549 1.91839C4.71552 2.06842 4.7998 2.2719 4.7998 2.48407V5.68407C4.7998 5.89625 4.71552 6.09973 4.56549 6.24976C4.41546 6.39979 4.21198 6.48407 3.9998 6.48407H1.5998C1.38763 6.48407 1.18415 6.39979 1.03412 6.24976C0.88409 6.09973 0.799805 5.89625 0.799805 5.68407V2.48407ZM5.821 2.92647C5.75457 2.95967 5.69869 3.01071 5.65963 3.07386C5.62056 3.13702 5.59984 3.20981 5.5998 3.28407V4.88407C5.59984 4.95834 5.62056 5.03113 5.65963 5.09428C5.69869 5.15744 5.75457 5.20848 5.821 5.24167L6.621 5.64167C6.68197 5.67214 6.74971 5.68652 6.8178 5.68346C6.88589 5.68039 6.95206 5.65998 7.01005 5.62415C7.06803 5.58833 7.1159 5.53828 7.14911 5.47877C7.18232 5.41925 7.19977 5.35223 7.1998 5.28407V2.88407C7.19977 2.81592 7.18232 2.7489 7.14911 2.68938C7.1159 2.62987 7.06803 2.57982 7.01005 2.544C6.95206 2.50817 6.88589 2.48776 6.8178 2.48469C6.74971 2.48163 6.68197 2.49601 6.621 2.52647L5.821 2.92647Z" fill="#E0F2FE"/>
</svg>
