<svg width="8" height="8" viewBox="0 0 8 8" fill="none" xmlns="http://www.w3.org/2000/svg">
<path d="M0.800049 2.40001C0.800049 2.18783 0.884334 1.98435 1.03436 1.83432C1.18439 1.68429 1.38788 1.60001 1.60005 1.60001H4.00005C4.21222 1.60001 4.4157 1.68429 4.56573 1.83432C4.71576 1.98435 4.80005 2.18783 4.80005 2.40001V5.60001C4.80005 5.81218 4.71576 6.01566 4.56573 6.16569C4.4157 6.31572 4.21222 6.40001 4.00005 6.40001H1.60005C1.38788 6.40001 1.18439 6.31572 1.03436 6.16569C0.884334 6.01566 0.800049 5.81218 0.800049 5.60001V2.40001ZM5.82125 2.84241C5.75482 2.8756 5.69894 2.92664 5.65987 2.9898C5.6208 3.05295 5.60009 3.12574 5.60005 3.20001V4.80001C5.60009 4.87427 5.6208 4.94706 5.65987 5.01022C5.69894 5.07337 5.75482 5.12441 5.82125 5.15761L6.62125 5.55761C6.68222 5.58807 6.74996 5.60245 6.81805 5.59939C6.88613 5.59632 6.95231 5.57591 7.01029 5.54008C7.06827 5.50426 7.11614 5.45422 7.14935 5.3947C7.18256 5.33518 7.20001 5.26816 7.20005 5.20001V2.80001C7.20001 2.73185 7.18256 2.66483 7.14935 2.60531C7.11614 2.5458 7.06827 2.49575 7.01029 2.45993C6.95231 2.4241 6.88613 2.40369 6.81805 2.40062C6.74996 2.39756 6.68222 2.41194 6.62125 2.44241L5.82125 2.84241Z" fill="#E0F2FE"/>
</svg>
