<svg width="72" height="72" viewBox="0 0 72 72" fill="none" xmlns="http://www.w3.org/2000/svg">
<path fill-rule="evenodd" clip-rule="evenodd" d="M45.9544 19.4056C46.6199 20.0713 46.9938 20.9741 46.9938 21.9155C46.9938 22.8568 46.6199 23.7596 45.9544 24.4253L34.2643 36.1155L45.9544 47.8056C46.6011 48.4751 46.9589 49.3719 46.9508 50.3027C46.9427 51.2335 46.5694 52.1239 45.9112 52.7821C45.253 53.4403 44.3626 53.8136 43.4318 53.8217C42.501 53.8298 41.6042 53.472 40.9347 52.8253L26.7347 38.6253C26.0692 37.9596 25.6953 37.0568 25.6953 36.1155C25.6953 35.1741 26.0692 34.2713 26.7347 33.6056L40.9347 19.4056C41.6004 18.7401 42.5032 18.3662 43.4446 18.3662C44.3859 18.3662 45.2887 18.7401 45.9544 19.4056V19.4056Z" fill="black"/>
</svg>
