<svg width="72" height="72" viewBox="0 0 72 72" fill="none" xmlns="http://www.w3.org/2000/svg">
<path fill-rule="evenodd" clip-rule="evenodd" d="M26.7347 52.8254C26.0692 52.1597 25.6953 51.2569 25.6953 50.3156C25.6953 49.3742 26.0692 48.4714 26.7347 47.8057L38.4249 36.1156L26.7347 24.4254C26.088 23.7559 25.7302 22.8591 25.7383 21.9283C25.7464 20.9975 26.1197 20.1072 26.7779 19.449C27.4361 18.7908 28.3265 18.4174 29.2573 18.4093C30.1881 18.4012 31.0849 18.759 31.7544 19.4057L45.9544 33.6057C46.6199 34.2714 46.9938 35.1742 46.9938 36.1156C46.9938 37.0569 46.6199 37.9597 45.9544 38.6254L31.7544 52.8254C31.0887 53.4909 30.1859 53.8648 29.2446 53.8648C28.3032 53.8648 27.4004 53.4909 26.7347 52.8254Z" fill="black"/>
</svg>
