<svg width="20" height="21" viewBox="0 0 20 21" fill="none" xmlns="http://www.w3.org/2000/svg">
<path fill-rule="evenodd" clip-rule="evenodd" d="M14.1355 15.2413C12.815 16.3655 11.1033 17.044 9.23317 17.044C5.05422 17.044 1.6665 13.6563 1.6665 9.47731C1.6665 5.29836 5.05422 1.91064 9.23317 1.91064C13.4121 1.91064 16.7998 5.29836 16.7998 9.47731C16.7998 11.3361 16.1296 13.0384 15.0175 14.3556L18.6495 17.9876L17.7657 18.8715L14.1355 15.2413ZM15.5498 9.47731C15.5498 12.9659 12.7218 15.794 9.23317 15.794C5.74457 15.794 2.9165 12.9659 2.9165 9.47731C2.9165 5.98871 5.74457 3.16064 9.23317 3.16064C12.7218 3.16064 15.5498 5.98871 15.5498 9.47731Z" fill="black"/>
</svg>
