<svg width="21" height="20" viewBox="0 0 21 20" fill="none" xmlns="http://www.w3.org/2000/svg">
<path fill-rule="evenodd" clip-rule="evenodd" d="M14.636 14.9974C13.3155 16.1216 11.6038 16.8001 9.73366 16.8001C5.5547 16.8001 2.16699 13.4124 2.16699 9.23341C2.16699 5.05446 5.5547 1.66675 9.73366 1.66675C13.9126 1.66675 17.3003 5.05446 17.3003 9.23341C17.3003 11.0922 16.6301 12.7945 15.518 14.1117L19.15 17.7437L18.2662 18.6276L14.636 14.9974ZM16.0503 9.23341C16.0503 12.722 13.2223 15.5501 9.73366 15.5501C6.24506 15.5501 3.41699 12.722 3.41699 9.23341C3.41699 5.74482 6.24506 2.91675 9.73366 2.91675C13.2223 2.91675 16.0503 5.74482 16.0503 9.23341Z" fill="#CCCCCC"/>
</svg>
