<svg width="21" height="20" viewBox="0 0 21 20" fill="none" xmlns="http://www.w3.org/2000/svg">
<path fill-rule="evenodd" clip-rule="evenodd" d="M14.6355 14.9974C13.315 16.1216 11.6033 16.8 9.73317 16.8C5.55422 16.8 2.1665 13.4123 2.1665 9.23334C2.1665 5.05438 5.55422 1.66667 9.73317 1.66667C13.9121 1.66667 17.2998 5.05438 17.2998 9.23334C17.2998 11.0922 16.6296 12.7944 15.5175 14.1117L19.1495 17.7437L18.2657 18.6276L14.6355 14.9974ZM16.0498 9.23334C16.0498 12.7219 13.2218 15.55 9.73317 15.55C6.24457 15.55 3.4165 12.7219 3.4165 9.23334C3.4165 5.74474 6.24457 2.91667 9.73317 2.91667C13.2218 2.91667 16.0498 5.74474 16.0498 9.23334Z" fill="black" fill-opacity="0.7"/>
</svg>
