<svg width="71" height="71" viewBox="0 0 71 71" fill="none" xmlns="http://www.w3.org/2000/svg">
<path fill-rule="evenodd" clip-rule="evenodd" d="M45.1099 18.7901C45.7754 19.4558 46.1493 20.3586 46.1493 21.3C46.1493 22.2413 45.7754 23.1441 45.1099 23.8098L33.4198 35.5L45.1099 47.1901C45.7566 47.8597 46.1144 48.7564 46.1063 49.6872C46.0982 50.618 45.7249 51.5084 45.0667 52.1666C44.4085 52.8248 43.5181 53.1981 42.5873 53.2062C41.6565 53.2143 40.7598 52.8565 40.0902 52.2098L25.8902 38.0098C25.2247 37.3441 24.8508 36.4413 24.8508 35.5C24.8508 34.5586 25.2247 33.6558 25.8902 32.9901L40.0902 18.7901C40.7559 18.1246 41.6587 17.7507 42.6001 17.7507C43.5414 17.7507 44.4442 18.1246 45.1099 18.7901Z" fill="#374151"/>
</svg>
