<svg width="20" height="21" viewBox="0 0 20 21" fill="none" xmlns="http://www.w3.org/2000/svg">
<path fill-rule="evenodd" clip-rule="evenodd" d="M7.29303 14.7911C7.10556 14.6035 7.00024 14.3492 7.00024 14.0841C7.00024 13.8189 7.10556 13.5646 7.29303 13.3771L10.586 10.0841L7.29303 6.79107C7.11087 6.60247 7.01008 6.34987 7.01236 6.08767C7.01463 5.82547 7.1198 5.57466 7.30521 5.38925C7.49062 5.20384 7.74143 5.09868 8.00363 5.0964C8.26583 5.09412 8.51843 5.19491 8.70703 5.37707L12.707 9.37707C12.8945 9.5646 12.9998 9.81891 12.9998 10.0841C12.9998 10.3492 12.8945 10.6035 12.707 10.7911L8.70703 14.7911C8.5195 14.9785 8.26519 15.0839 8.00003 15.0839C7.73487 15.0839 7.48056 14.9785 7.29303 14.7911Z" fill="#18181B"/>
</svg>
