<svg width="21" height="21" viewBox="0 0 21 21" fill="none" xmlns="http://www.w3.org/2000/svg">
<path fill-rule="evenodd" clip-rule="evenodd" d="M14.239 15.3977C12.9185 16.5219 11.2068 17.2003 9.33669 17.2003C5.15773 17.2003 1.77002 13.8126 1.77002 9.63365C1.77002 5.4547 5.15773 2.06699 9.33669 2.06699C13.5156 2.06699 16.9034 5.4547 16.9034 9.63365C16.9034 11.4925 16.2331 13.1948 15.1211 14.512L18.7531 18.144L17.8692 19.0279L14.239 15.3977ZM15.6534 9.63365C15.6534 13.1223 12.8253 15.9503 9.33669 15.9503C5.84809 15.9503 3.02002 13.1223 3.02002 9.63365C3.02002 6.14505 5.84809 3.31699 9.33669 3.31699C12.8253 3.31699 15.6534 6.14505 15.6534 9.63365Z" fill="black" fill-opacity="0.7"/>
</svg>
