<svg width="8" height="8" viewBox="0 0 8 8" fill="none" xmlns="http://www.w3.org/2000/svg">
<path d="M0.799805 2.39998C0.799805 2.1878 0.88409 1.98432 1.03412 1.83429C1.18415 1.68426 1.38763 1.59998 1.5998 1.59998H3.9998C4.21198 1.59998 4.41546 1.68426 4.56549 1.83429C4.71552 1.98432 4.7998 2.1878 4.7998 2.39998V5.59998C4.7998 5.81215 4.71552 6.01563 4.56549 6.16566C4.41546 6.31569 4.21198 6.39998 3.9998 6.39998H1.5998C1.38763 6.39998 1.18415 6.31569 1.03412 6.16566C0.88409 6.01563 0.799805 5.81215 0.799805 5.59998V2.39998ZM5.821 2.84238C5.75457 2.87557 5.69869 2.92661 5.65963 2.98977C5.62056 3.05292 5.59984 3.12571 5.5998 3.19998V4.79998C5.59984 4.87424 5.62056 4.94703 5.65963 5.01019C5.69869 5.07334 5.75457 5.12438 5.821 5.15758L6.621 5.55758C6.68197 5.58804 6.74971 5.60242 6.8178 5.59936C6.88589 5.59629 6.95206 5.57588 7.01005 5.54005C7.06803 5.50423 7.1159 5.45419 7.14911 5.39467C7.18232 5.33515 7.19977 5.26813 7.1998 5.19998V2.79998C7.19977 2.73182 7.18232 2.6648 7.14911 2.60528C7.1159 2.54577 7.06803 2.49572 7.01005 2.4599C6.95206 2.42407 6.88589 2.40366 6.8178 2.40059C6.74971 2.39753 6.68197 2.41191 6.621 2.44238L5.821 2.84238Z" fill="#FEF3C7"/>
</svg>
